%TF.GenerationSoftware,KiCad,Pcbnew,(6.0.4)*%
%TF.CreationDate,2022-05-21T11:19:22+01:00*%
%TF.ProjectId,Saft 40LF220 - Rev B,53616674-2034-4304-9c46-323230202d20,rev?*%
%TF.SameCoordinates,Original*%
%TF.FileFunction,Legend,Bot*%
%TF.FilePolarity,Positive*%
%FSLAX46Y46*%
G04 Gerber Fmt 4.6, Leading zero omitted, Abs format (unit mm)*
G04 Created by KiCad (PCBNEW (6.0.4)) date 2022-05-21 11:19:22*
%MOMM*%
%LPD*%
G01*
G04 APERTURE LIST*
%ADD10C,0.150000*%
G04 APERTURE END LIST*
D10*
X139645238Y-61771428D02*
X139645238Y-63104761D01*
X140121428Y-61009523D02*
X140597619Y-62438095D01*
X139359523Y-62438095D01*
X138216666Y-61104761D02*
X138026190Y-61104761D01*
X137835714Y-61200000D01*
X137740476Y-61295238D01*
X137645238Y-61485714D01*
X137550000Y-61866666D01*
X137550000Y-62342857D01*
X137645238Y-62723809D01*
X137740476Y-62914285D01*
X137835714Y-63009523D01*
X138026190Y-63104761D01*
X138216666Y-63104761D01*
X138407142Y-63009523D01*
X138502380Y-62914285D01*
X138597619Y-62723809D01*
X138692857Y-62342857D01*
X138692857Y-61866666D01*
X138597619Y-61485714D01*
X138502380Y-61295238D01*
X138407142Y-61200000D01*
X138216666Y-61104761D01*
X135740476Y-63104761D02*
X136692857Y-63104761D01*
X136692857Y-61104761D01*
X134407142Y-62057142D02*
X135073809Y-62057142D01*
X135073809Y-63104761D02*
X135073809Y-61104761D01*
X134121428Y-61104761D01*
X133454761Y-61295238D02*
X133359523Y-61200000D01*
X133169047Y-61104761D01*
X132692857Y-61104761D01*
X132502380Y-61200000D01*
X132407142Y-61295238D01*
X132311904Y-61485714D01*
X132311904Y-61676190D01*
X132407142Y-61961904D01*
X133550000Y-63104761D01*
X132311904Y-63104761D01*
X131550000Y-61295238D02*
X131454761Y-61200000D01*
X131264285Y-61104761D01*
X130788095Y-61104761D01*
X130597619Y-61200000D01*
X130502380Y-61295238D01*
X130407142Y-61485714D01*
X130407142Y-61676190D01*
X130502380Y-61961904D01*
X131645238Y-63104761D01*
X130407142Y-63104761D01*
X129169047Y-61104761D02*
X128978571Y-61104761D01*
X128788095Y-61200000D01*
X128692857Y-61295238D01*
X128597619Y-61485714D01*
X128502380Y-61866666D01*
X128502380Y-62342857D01*
X128597619Y-62723809D01*
X128692857Y-62914285D01*
X128788095Y-63009523D01*
X128978571Y-63104761D01*
X129169047Y-63104761D01*
X129359523Y-63009523D01*
X129454761Y-62914285D01*
X129550000Y-62723809D01*
X129645238Y-62342857D01*
X129645238Y-61866666D01*
X129550000Y-61485714D01*
X129454761Y-61295238D01*
X129359523Y-61200000D01*
X129169047Y-61104761D01*
X141192857Y-71002380D02*
X141192857Y-71811904D01*
X141145238Y-71907142D01*
X141097619Y-71954761D01*
X141002380Y-72002380D01*
X140811904Y-72002380D01*
X140716666Y-71954761D01*
X140669047Y-71907142D01*
X140621428Y-71811904D01*
X140621428Y-71002380D01*
X140288095Y-71002380D02*
X139716666Y-71002380D01*
X140002380Y-72002380D02*
X140002380Y-71002380D01*
X138811904Y-72002380D02*
X139145238Y-71526190D01*
X139383333Y-72002380D02*
X139383333Y-71002380D01*
X139002380Y-71002380D01*
X138907142Y-71050000D01*
X138859523Y-71097619D01*
X138811904Y-71192857D01*
X138811904Y-71335714D01*
X138859523Y-71430952D01*
X138907142Y-71478571D01*
X139002380Y-71526190D01*
X139383333Y-71526190D01*
X138192857Y-71002380D02*
X138097619Y-71002380D01*
X138002380Y-71050000D01*
X137954761Y-71097619D01*
X137907142Y-71192857D01*
X137859523Y-71383333D01*
X137859523Y-71621428D01*
X137907142Y-71811904D01*
X137954761Y-71907142D01*
X138002380Y-71954761D01*
X138097619Y-72002380D01*
X138192857Y-72002380D01*
X138288095Y-71954761D01*
X138335714Y-71907142D01*
X138383333Y-71811904D01*
X138430952Y-71621428D01*
X138430952Y-71383333D01*
X138383333Y-71192857D01*
X138335714Y-71097619D01*
X138288095Y-71050000D01*
X138192857Y-71002380D01*
X137240476Y-71002380D02*
X137145238Y-71002380D01*
X137050000Y-71050000D01*
X137002380Y-71097619D01*
X136954761Y-71192857D01*
X136907142Y-71383333D01*
X136907142Y-71621428D01*
X136954761Y-71811904D01*
X137002380Y-71907142D01*
X137050000Y-71954761D01*
X137145238Y-72002380D01*
X137240476Y-72002380D01*
X137335714Y-71954761D01*
X137383333Y-71907142D01*
X137430952Y-71811904D01*
X137478571Y-71621428D01*
X137478571Y-71383333D01*
X137430952Y-71192857D01*
X137383333Y-71097619D01*
X137335714Y-71050000D01*
X137240476Y-71002380D01*
X136288095Y-71002380D02*
X136192857Y-71002380D01*
X136097619Y-71050000D01*
X136050000Y-71097619D01*
X136002380Y-71192857D01*
X135954761Y-71383333D01*
X135954761Y-71621428D01*
X136002380Y-71811904D01*
X136050000Y-71907142D01*
X136097619Y-71954761D01*
X136192857Y-72002380D01*
X136288095Y-72002380D01*
X136383333Y-71954761D01*
X136430952Y-71907142D01*
X136478571Y-71811904D01*
X136526190Y-71621428D01*
X136526190Y-71383333D01*
X136478571Y-71192857D01*
X136430952Y-71097619D01*
X136383333Y-71050000D01*
X136288095Y-71002380D01*
X135573809Y-71097619D02*
X135526190Y-71050000D01*
X135430952Y-71002380D01*
X135192857Y-71002380D01*
X135097619Y-71050000D01*
X135050000Y-71097619D01*
X135002380Y-71192857D01*
X135002380Y-71288095D01*
X135050000Y-71430952D01*
X135621428Y-72002380D01*
X135002380Y-72002380D01*
X133811904Y-71621428D02*
X133050000Y-71621428D01*
X131240476Y-72002380D02*
X131573809Y-71526190D01*
X131811904Y-72002380D02*
X131811904Y-71002380D01*
X131430952Y-71002380D01*
X131335714Y-71050000D01*
X131288095Y-71097619D01*
X131240476Y-71192857D01*
X131240476Y-71335714D01*
X131288095Y-71430952D01*
X131335714Y-71478571D01*
X131430952Y-71526190D01*
X131811904Y-71526190D01*
X130430952Y-71954761D02*
X130526190Y-72002380D01*
X130716666Y-72002380D01*
X130811904Y-71954761D01*
X130859523Y-71859523D01*
X130859523Y-71478571D01*
X130811904Y-71383333D01*
X130716666Y-71335714D01*
X130526190Y-71335714D01*
X130430952Y-71383333D01*
X130383333Y-71478571D01*
X130383333Y-71573809D01*
X130859523Y-71669047D01*
X130050000Y-71335714D02*
X129811904Y-72002380D01*
X129573809Y-71335714D01*
X128097619Y-71478571D02*
X127954761Y-71526190D01*
X127907142Y-71573809D01*
X127859523Y-71669047D01*
X127859523Y-71811904D01*
X127907142Y-71907142D01*
X127954761Y-71954761D01*
X128050000Y-72002380D01*
X128430952Y-72002380D01*
X128430952Y-71002380D01*
X128097619Y-71002380D01*
X128002380Y-71050000D01*
X127954761Y-71097619D01*
X127907142Y-71192857D01*
X127907142Y-71288095D01*
X127954761Y-71383333D01*
X128002380Y-71430952D01*
X128097619Y-71478571D01*
X128430952Y-71478571D01*
X142466960Y-65515835D02*
X143116903Y-64551965D01*
X143609643Y-65495890D02*
X143574738Y-63496194D01*
X142812949Y-63509491D01*
X142624164Y-63608039D01*
X142530603Y-63704925D01*
X142438703Y-63897034D01*
X142443690Y-64182705D01*
X142542238Y-64371490D01*
X142639123Y-64465052D01*
X142831233Y-64556951D01*
X143593021Y-64543654D01*
X140846496Y-65448868D02*
X141038606Y-65540767D01*
X141419500Y-65534119D01*
X141608285Y-65435571D01*
X141700184Y-65243462D01*
X141686887Y-64481673D01*
X141588339Y-64292888D01*
X141396230Y-64200989D01*
X141015336Y-64207637D01*
X140826551Y-64306185D01*
X140734651Y-64498294D01*
X140737976Y-64688742D01*
X141693536Y-64862567D01*
X139872653Y-64227583D02*
X139907558Y-66227278D01*
X139874315Y-64322806D02*
X139682206Y-64230907D01*
X139301311Y-64237556D01*
X139112526Y-64336103D01*
X139018965Y-64432989D01*
X138927065Y-64625098D01*
X138937038Y-65196440D01*
X139035586Y-65385225D01*
X139132472Y-65478787D01*
X139324581Y-65570686D01*
X139705475Y-65564037D01*
X139894260Y-65465489D01*
X137801004Y-65597280D02*
X137989789Y-65498732D01*
X138081688Y-65306623D01*
X138051770Y-63592598D01*
X136182203Y-65625536D02*
X136163919Y-64578077D01*
X136255818Y-64385967D01*
X136444603Y-64287420D01*
X136825498Y-64280771D01*
X137017607Y-64372670D01*
X136180540Y-65530313D02*
X136372650Y-65622212D01*
X136848768Y-65613901D01*
X137037553Y-65515353D01*
X137129452Y-65323244D01*
X137126128Y-65132797D01*
X137027580Y-64944012D01*
X136835471Y-64852113D01*
X136359353Y-64860423D01*
X136167243Y-64768524D01*
X134371292Y-65561893D02*
X134563402Y-65653793D01*
X134944296Y-65647144D01*
X135133081Y-65548596D01*
X135226642Y-65451710D01*
X135318542Y-65259601D01*
X135308569Y-64688260D01*
X135210021Y-64499475D01*
X135113135Y-64405913D01*
X134921026Y-64314014D01*
X134540132Y-64320662D01*
X134351347Y-64419210D01*
X132752491Y-65590149D02*
X132944601Y-65682049D01*
X133325495Y-65675400D01*
X133514280Y-65576852D01*
X133606179Y-65384743D01*
X133592882Y-64622954D01*
X133494334Y-64434169D01*
X133302225Y-64342270D01*
X132921331Y-64348919D01*
X132732546Y-64447466D01*
X132640646Y-64639576D01*
X132643971Y-64830023D01*
X133599531Y-65003849D01*
X131801917Y-65701994D02*
X131778648Y-64368864D01*
X131781972Y-64559311D02*
X131685086Y-64465750D01*
X131492977Y-64373851D01*
X131207306Y-64378837D01*
X131018521Y-64477385D01*
X130926622Y-64669494D01*
X130944905Y-65716954D01*
X130926622Y-64669494D02*
X130828074Y-64480709D01*
X130635965Y-64388810D01*
X130350294Y-64393796D01*
X130161509Y-64492344D01*
X130069609Y-64684453D01*
X130087893Y-65731913D01*
X128372206Y-65666608D02*
X128564315Y-65758507D01*
X128945210Y-65751858D01*
X129133995Y-65653311D01*
X129225894Y-65461201D01*
X129212597Y-64699413D01*
X129114049Y-64510628D01*
X128921940Y-64418728D01*
X128541046Y-64425377D01*
X128352260Y-64523925D01*
X128260361Y-64716034D01*
X128263685Y-64906481D01*
X129219246Y-65080307D01*
X127398362Y-64445322D02*
X127421632Y-65778453D01*
X127401687Y-64635770D02*
X127304801Y-64542208D01*
X127112692Y-64450309D01*
X126827021Y-64455295D01*
X126638236Y-64553843D01*
X126546337Y-64745952D01*
X126564620Y-65793412D01*
X125874785Y-64471916D02*
X125112996Y-64485214D01*
X125577479Y-63810338D02*
X125607398Y-65524362D01*
X125515498Y-65716472D01*
X125326713Y-65815020D01*
X125136266Y-65818344D01*
M02*
