%TF.GenerationSoftware,KiCad,Pcbnew,(6.0.4)*%
%TF.CreationDate,2022-05-21T11:19:22+01:00*%
%TF.ProjectId,Saft 40LF220 - Rev B,53616674-2034-4304-9c46-323230202d20,rev?*%
%TF.SameCoordinates,Original*%
%TF.FileFunction,Copper,L2,Bot*%
%TF.FilePolarity,Positive*%
%FSLAX46Y46*%
G04 Gerber Fmt 4.6, Leading zero omitted, Abs format (unit mm)*
G04 Created by KiCad (PCBNEW (6.0.4)) date 2022-05-21 11:19:22*
%MOMM*%
%LPD*%
G01*
G04 APERTURE LIST*
%TA.AperFunction,ComponentPad*%
%ADD10C,1.800000*%
%TD*%
%TA.AperFunction,Conductor*%
%ADD11C,1.500000*%
%TD*%
G04 APERTURE END LIST*
D10*
%TO.P,-,1,Pin_1*%
%TO.N,GND*%
X147300000Y-53700000D03*
%TD*%
%TO.P,-,1,Pin_1*%
%TO.N,GND*%
X147300000Y-78800000D03*
%TD*%
%TO.P,+,1,Pin_1*%
%TO.N,+3V0*%
X121650000Y-53650000D03*
%TD*%
%TO.P,-,1,Pin_1*%
%TO.N,GND*%
X121650000Y-78800000D03*
%TD*%
D11*
%TO.N,GND*%
X147300000Y-78800000D02*
X147300000Y-53700000D01*
%TD*%
%TA.AperFunction,Conductor*%
%TO.N,GND*%
G36*
X146453964Y-52478502D02*
G01*
X146496388Y-52524037D01*
X146512251Y-52553040D01*
X147287189Y-53327979D01*
X147301132Y-53335592D01*
X147302966Y-53335461D01*
X147309580Y-53331210D01*
X148088993Y-52551796D01*
X148104109Y-52524114D01*
X148154311Y-52473912D01*
X148214696Y-52458500D01*
X148615500Y-52458500D01*
X148683621Y-52478502D01*
X148730114Y-52532158D01*
X148741500Y-52584500D01*
X148741500Y-52909177D01*
X148721498Y-52977298D01*
X148667842Y-53023791D01*
X148597568Y-53033895D01*
X148532988Y-53004401D01*
X148509708Y-52977616D01*
X148469225Y-52915039D01*
X148458538Y-52905835D01*
X148448973Y-52910238D01*
X147672021Y-53687189D01*
X147664408Y-53701132D01*
X147664539Y-53702966D01*
X147668790Y-53709580D01*
X148446307Y-54487096D01*
X148458313Y-54493652D01*
X148470052Y-54484684D01*
X148511028Y-54427659D01*
X148512129Y-54428450D01*
X148559720Y-54384627D01*
X148629657Y-54372406D01*
X148695099Y-54399935D01*
X148735269Y-54458475D01*
X148741500Y-54497608D01*
X148741500Y-78009177D01*
X148721498Y-78077298D01*
X148667842Y-78123791D01*
X148597568Y-78133895D01*
X148532988Y-78104401D01*
X148509708Y-78077616D01*
X148469225Y-78015039D01*
X148458538Y-78005835D01*
X148448973Y-78010238D01*
X147672021Y-78787189D01*
X147664408Y-78801132D01*
X147664539Y-78802966D01*
X147668790Y-78809580D01*
X148446307Y-79587096D01*
X148458313Y-79593652D01*
X148470052Y-79584684D01*
X148511028Y-79527659D01*
X148512129Y-79528450D01*
X148559720Y-79484627D01*
X148629657Y-79472406D01*
X148695099Y-79499935D01*
X148735269Y-79558475D01*
X148741500Y-79597608D01*
X148741500Y-80065500D01*
X148721498Y-80133621D01*
X148667842Y-80180114D01*
X148615500Y-80191500D01*
X148167591Y-80191500D01*
X148099470Y-80171498D01*
X148052977Y-80117842D01*
X148042873Y-80047568D01*
X148072367Y-79982988D01*
X148080058Y-79975990D01*
X148093497Y-79958874D01*
X148086510Y-79945721D01*
X147312811Y-79172021D01*
X147298868Y-79164408D01*
X147297034Y-79164539D01*
X147290420Y-79168790D01*
X146510180Y-79949031D01*
X146503423Y-79961406D01*
X146522730Y-79987197D01*
X146519942Y-79989284D01*
X146541436Y-80014831D01*
X146550516Y-80085245D01*
X146520087Y-80149389D01*
X146459808Y-80186900D01*
X146426073Y-80191500D01*
X122517591Y-80191500D01*
X122449470Y-80171498D01*
X122402977Y-80117842D01*
X122392873Y-80047568D01*
X122422367Y-79982988D01*
X122430058Y-79975990D01*
X122443497Y-79958874D01*
X122436510Y-79945721D01*
X121662811Y-79172021D01*
X121648868Y-79164408D01*
X121647034Y-79164539D01*
X121640420Y-79168790D01*
X120860180Y-79949031D01*
X120853423Y-79961406D01*
X120872730Y-79987197D01*
X120869942Y-79989284D01*
X120891436Y-80014831D01*
X120900516Y-80085245D01*
X120870087Y-80149389D01*
X120809808Y-80186900D01*
X120776073Y-80191500D01*
X120334500Y-80191500D01*
X120266379Y-80171498D01*
X120219886Y-80117842D01*
X120208500Y-80065500D01*
X120208500Y-79589337D01*
X120228502Y-79521216D01*
X120282158Y-79474723D01*
X120352432Y-79464619D01*
X120417012Y-79494113D01*
X120441933Y-79523503D01*
X120480097Y-79585781D01*
X120490553Y-79595242D01*
X120499331Y-79591458D01*
X121277979Y-78812811D01*
X121284356Y-78801132D01*
X122014408Y-78801132D01*
X122014539Y-78802966D01*
X122018790Y-78809580D01*
X122796307Y-79587096D01*
X122808313Y-79593652D01*
X122820052Y-79584684D01*
X122858010Y-79531859D01*
X122863321Y-79523020D01*
X122961318Y-79324737D01*
X122965117Y-79315142D01*
X123029415Y-79103517D01*
X123031594Y-79093436D01*
X123060702Y-78872338D01*
X123061221Y-78865663D01*
X123062744Y-78803364D01*
X123062550Y-78796646D01*
X123060412Y-78770638D01*
X145887893Y-78770638D01*
X145900627Y-78991468D01*
X145902061Y-79001670D01*
X145950685Y-79217439D01*
X145953773Y-79227292D01*
X146036986Y-79432220D01*
X146041634Y-79441421D01*
X146130097Y-79585781D01*
X146140553Y-79595242D01*
X146149331Y-79591458D01*
X146927979Y-78812811D01*
X146935592Y-78798868D01*
X146935461Y-78797034D01*
X146931210Y-78790420D01*
X146153862Y-78013073D01*
X146142330Y-78006776D01*
X146130048Y-78016399D01*
X146074467Y-78097877D01*
X146069379Y-78106833D01*
X145976252Y-78307459D01*
X145972689Y-78317146D01*
X145913581Y-78530280D01*
X145911650Y-78540400D01*
X145888145Y-78760349D01*
X145887893Y-78770638D01*
X123060412Y-78770638D01*
X123044279Y-78574400D01*
X123042596Y-78564238D01*
X122988710Y-78349708D01*
X122985389Y-78339953D01*
X122897193Y-78137118D01*
X122892315Y-78128020D01*
X122819224Y-78015038D01*
X122808538Y-78005835D01*
X122798973Y-78010238D01*
X122022021Y-78787189D01*
X122014408Y-78801132D01*
X121284356Y-78801132D01*
X121285592Y-78798868D01*
X121285461Y-78797034D01*
X121281210Y-78790420D01*
X120503862Y-78013073D01*
X120492330Y-78006776D01*
X120480047Y-78016400D01*
X120438588Y-78077176D01*
X120383677Y-78122179D01*
X120313152Y-78130350D01*
X120249405Y-78099096D01*
X120212675Y-78038339D01*
X120208500Y-78006172D01*
X120208500Y-77640711D01*
X120855508Y-77640711D01*
X120862251Y-77653040D01*
X121637189Y-78427979D01*
X121651132Y-78435592D01*
X121652966Y-78435461D01*
X121659580Y-78431210D01*
X122438994Y-77651795D01*
X122445046Y-77640711D01*
X146505508Y-77640711D01*
X146512251Y-77653040D01*
X147287189Y-78427979D01*
X147301132Y-78435592D01*
X147302966Y-78435461D01*
X147309580Y-78431210D01*
X148088994Y-77651795D01*
X148096011Y-77638944D01*
X148088237Y-77628274D01*
X148085902Y-77626430D01*
X148077320Y-77620729D01*
X147883678Y-77513833D01*
X147874272Y-77509606D01*
X147665772Y-77435772D01*
X147655809Y-77433140D01*
X147438047Y-77394350D01*
X147427796Y-77393381D01*
X147206616Y-77390679D01*
X147196332Y-77391399D01*
X146977693Y-77424855D01*
X146967666Y-77427244D01*
X146757426Y-77495961D01*
X146747916Y-77499958D01*
X146551725Y-77602089D01*
X146543007Y-77607578D01*
X146513961Y-77629386D01*
X146505508Y-77640711D01*
X122445046Y-77640711D01*
X122446011Y-77638944D01*
X122438237Y-77628274D01*
X122435902Y-77626430D01*
X122427320Y-77620729D01*
X122233678Y-77513833D01*
X122224272Y-77509606D01*
X122015772Y-77435772D01*
X122005809Y-77433140D01*
X121788047Y-77394350D01*
X121777796Y-77393381D01*
X121556616Y-77390679D01*
X121546332Y-77391399D01*
X121327693Y-77424855D01*
X121317666Y-77427244D01*
X121107426Y-77495961D01*
X121097916Y-77499958D01*
X120901725Y-77602089D01*
X120893007Y-77607578D01*
X120863961Y-77629386D01*
X120855508Y-77640711D01*
X120208500Y-77640711D01*
X120208500Y-55426000D01*
X120228502Y-55357879D01*
X120282158Y-55311386D01*
X120334500Y-55300000D01*
X123550000Y-55300000D01*
X123550000Y-54861406D01*
X146503423Y-54861406D01*
X146508704Y-54868461D01*
X146685080Y-54971527D01*
X146694363Y-54975974D01*
X146901003Y-55054883D01*
X146910901Y-55057759D01*
X147127653Y-55101857D01*
X147137883Y-55103076D01*
X147358914Y-55111182D01*
X147369223Y-55110714D01*
X147588623Y-55082608D01*
X147598688Y-55080468D01*
X147810557Y-55016905D01*
X147820152Y-55013144D01*
X148018778Y-54915838D01*
X148027636Y-54910559D01*
X148085097Y-54869572D01*
X148093497Y-54858874D01*
X148086510Y-54845721D01*
X147312811Y-54072021D01*
X147298868Y-54064408D01*
X147297034Y-54064539D01*
X147290420Y-54068790D01*
X146510180Y-54849031D01*
X146503423Y-54861406D01*
X123550000Y-54861406D01*
X123550000Y-53670638D01*
X145887893Y-53670638D01*
X145900627Y-53891468D01*
X145902061Y-53901670D01*
X145950685Y-54117439D01*
X145953773Y-54127292D01*
X146036986Y-54332220D01*
X146041634Y-54341421D01*
X146130097Y-54485781D01*
X146140553Y-54495242D01*
X146149331Y-54491458D01*
X146927979Y-53712811D01*
X146935592Y-53698868D01*
X146935461Y-53697034D01*
X146931210Y-53690420D01*
X146153862Y-52913073D01*
X146142330Y-52906776D01*
X146130048Y-52916399D01*
X146074467Y-52997877D01*
X146069379Y-53006833D01*
X145976252Y-53207459D01*
X145972689Y-53217146D01*
X145913581Y-53430280D01*
X145911650Y-53440400D01*
X145888145Y-53660349D01*
X145887893Y-53670638D01*
X123550000Y-53670638D01*
X123550000Y-52584500D01*
X123570002Y-52516379D01*
X123623658Y-52469886D01*
X123676000Y-52458500D01*
X146385843Y-52458500D01*
X146453964Y-52478502D01*
G37*
%TD.AperFunction*%
%TD*%
M02*
